<?xml version="1.0" encoding="utf-8"?>
<!-- Generator: Adobe Illustrator 18.1.0, SVG Export Plug-In . SVG Version: 6.00 Build 0)  -->
<!DOCTYPE svg PUBLIC "-//W3C//DTD SVG 1.1//EN" "http://www.w3.org/Graphics/SVG/1.1/DTD/svg11.dtd">
<svg version="1.1" id="Layer_1" xmlns="http://www.w3.org/2000/svg" xmlns:xlink="http://www.w3.org/1999/xlink" x="0px" y="0px"
	 viewBox="0 0 50 50" enable-background="new 0 0 50 50" xml:space="preserve">
<rect x="15" y="12.8" display="none" fill="#BCC4C8" width="6.7" height="25.3"/>
<rect x="28.3" y="12.8" display="none" fill="#BCC4C8" width="6.7" height="25.3"/>
<path fill="#BCC3C7" d="M38.8,25C38.8,25,38.8,25,38.8,25L38.8,25c0-7.4-6-13.4-13.4-13.4v5.8c4.2,0,7.6,3.4,7.6,7.6
	c0,4.1-3.3,7.5-7.4,7.6c-3.8-0.1-7-3-7.4-6.8h3.1l-6-6l-6,6h3.1c0.4,6.9,6,12.4,13,12.6v0c0.1,0,0.1,0,0.2,0c0.1,0,0.1,0,0.2,0v0
	C32.9,38.2,38.7,32.3,38.8,25L38.8,25C38.8,25,38.8,25,38.8,25z"/>
</svg>
