<?xml version="1.0" encoding="utf-8"?>
<!-- Generator: Adobe Illustrator 21.0.1, SVG Export Plug-In . SVG Version: 6.00 Build 0)  -->
<svg version="1.1" id="Map" xmlns:inkscape="http://www.inkscape.org/namespaces/inkscape"
	xmlns="http://www.w3.org/2000/svg" xmlns:xlink="http://www.w3.org/1999/xlink" x="0px" y="0px" viewBox="0 0 792 612"
	style="enable-background:new 0 0 792 612;" xml:space="preserve">
<style type="text/css">
	.st0{fill:#FFFFFF;stroke:#636363;stroke-width:5;stroke-miterlimit:10;}
	.st0s{fill:none;stroke:#0099CC;stroke-width:6.6704;}
	.st1s{fill:#FF9800;}
</style>
<polyline id="theMotionPath" class="st0" points="644,12 612,12 19,12 "/>
<path id="theMotionPaths" class="st0s" d="M184891.2-166855.9L184891.2-166855.9l-0.6-0.6l0.7-1.2l0.5-0.3l0.2-0.6l0.1-0.8
	l-0.6-2.9l-0.5-0.8l-0.5-0.6l-0.6-0.7l-0.3-0.4l-0.3-0.4l-0.4-0.5l-0.4-0.6l-0.4-0.6l-0.2-0.7l-0.2-0.7l-0.2-0.7l0.1-0.8l0.2-0.9
	l0.2-0.9l0.1-0.9l0.1-0.9l0.1-1l0.1-0.9l0.1-1l0.1-1v-1v-1l-0.1-1.1l-0.2-1.1l-0.2-1.1l-0.2-1.1l-0.2-1l-0.3-1l-0.3-1.1l-0.2-1.1
	l-0.3-1.1l-0.3-1l-0.3-1l-0.3-1l-0.3-1.1l-0.3-1.1l-0.3-1.1l-0.2-1.1l-0.3-1.1l-0.3-1.2l-0.3-1.2l-0.3-1.2l-0.3-1.2l-0.3-1.2
	l-0.3-1.2l-0.3-1.2l-0.3-1.2l-0.2-1.2l-0.2-1.2l-0.2-1.2l-0.1-1.2v-1.2v-1.2l0.1-1.2l0.2-1.2l0.3-1.2l0.4-1.1l0.5-1.2l0.5-1.2
	l0.6-1.1l0.7-1l0.7-1l0.7-1l0.7-0.9l0.7-0.9l0.7-0.9l0.7-0.9l0.7-1l0.7-1l0.7-1l0.8-0.9l0.8-0.9l0.8-0.9l0.8-0.9l0.8-0.9l0.8-0.9
	l0.7-1l0.7-1l0.7-1l0.8-1l0.8-0.9l0.7-0.9l0.7-0.9l0.7-1l0.7-1l0.8-1l0.8-1l0.8-1l0.9-1.1l1-1.1l0.9-1.1l0.9-1.1l1-1.1l1-1l1-1
	l1-1l1.1-0.9l1.1-0.9l1.1-0.8l1.2-0.8l1.2-0.8l1.2-0.8l1.2-0.7l1.2-0.7l1.2-0.7l1.1-0.7l1.1-0.7l1-0.7l0.9-0.7l0.7-0.7l0.6-0.8
	l0.7-0.9l0.6-0.9l0.1-1v-1v-0.9l-0.2-0.8l-0.3-0.8l-0.4-0.8l-0.9-0.8l-0.8-0.8l-1.1-0.6l-1.1-0.6l-1.5-0.4l-1.4-0.2h-1.4l-1.5,0.3
	l-1.3,0.3l-1.4,0.3l-1.4,0.3l-1.4,0.3l-1.3,0.4l-1.3,0.5l-1.4,0.4l-1.4,0.3l-1.3,0.3l-1.3,0.2h-1l-0.7-0.2l-0.8-0.1l-0.9-0.2
	l-0.9-0.2l-0.9-0.2l-0.7-0.6l-0.6-0.6l-0.5-0.5l-0.3-0.6l-0.2-0.5l-0.2-0.5l-0.7-0.5l-0.8-0.1l-1,0.5l-0.6,0.3l-0.6,0.3l-0.5,0.3
	l-0.6,0.3l-0.7,0.3l-0.8,0.4l-0.9,0.4l-0.9,0.4l-0.9,0.4l-0.9,0.5l-1,0.5l-1,0.5l-1,0.5l-1,0.5l-1,0.5l-1.1,0.5l-1.1,0.5l-1.1,0.5
	l-1.1,0.5l-1.1,0.5l-1.2,0.4l-1.2,0.3l-1.1,0.4l-1.2,0.3l-1.2,0.3l-1.2,0.3l-1.2,0.3l-1.3,0.2l-1.3,0.3l-1.3,0.2l-1.2,0.1
	l-1.2,0.1l-1.3,0.1l-1.3,0.1l-1.3,0.1l-1.3,0.1l-1.3-0.1l-1.2-0.1l-1.2-0.1l-1.1-0.2l-1.2-0.1l-1.2-0.1l-1.2-0.2l-1.2-0.2
	l-1.2-0.2l-1.2-0.2l-1.1-0.3l-1.2-0.3l-1.1-0.3l-1.1-0.3l-1.2-0.4l-1.2-0.4l-1.1-0.4l-1.2-0.4l-1.2-0.4l-1.2-0.4l-1.2-0.4
	l-1.2-0.3l-1.2-0.3l-1.2-0.3l-1.3-0.2l-1.3-0.3l-1.3-0.3l-1.2-0.3l-1.3-0.2l-1.3-0.2l-1.3-0.2l-1.3-0.2l-1.3-0.1h-1.2h-1.3h-1.4
	h-1.4h-1.4h-1.4l-1.4,0.1l-1.4,0.1l-1.4,0.1l-1.4,0.1l-1.4,0.2l-1.5,0.2l-1.5,0.2l-1.5,0.2l-1.5,0.2l-1.5,0.3l-1.4,0.4l-1.4,0.4
	l-1.5,0.4l-1.5,0.6l-1.5,0.5l-1.6,0.6l-1.6,0.6l-1.6,0.6l-1.5,0.7l-1.5,0.7l-1.5,0.7l-1.5,0.7l-1.5,0.8l-1.5,0.8l-1.4,0.8
	l-1.4,0.9l-1.4,0.8l-1.4,0.9l-1.4,0.9l-1.4,0.9l-1.4,0.9l-1.4,0.9l-1.4,0.9l-1.4,0.9l-1.4,0.8l-1.4,0.8l-1.4,0.8l-1.4,0.8
	l-1.4,0.8l-1.4,0.8l-1.4,0.8l-1.4,0.8l-2.8,1.5l-1.4,0.7l-1.5,0.7l-1.5,0.7l-1.5,0.7l-1.5,0.7l-1.5,0.7l-1.5,0.6l-1.5,0.6
	l-1.4,0.6l-1.4,0.6l-1.4,0.6l-1.5,0.6l-1.5,0.6l-5.9,2.3l-1.5,0.6l-1.4,0.6l-1.4,0.6l-1.4,0.5l-1.4,0.5l-1.4,0.5l-1.4,0.5
	l-1.4,0.5l-1.4,0.5l-1.4,0.6l-1.4,0.6l-1.4,0.5l-1.4,0.5l-1.4,0.5l-1.4,0.6l-1.4,0.6l-1.5,0.6l-1.4,0.6l-1.4,0.6l-1.4,0.6
	l-1.4,0.5l-1.4,0.5l-1.4,0.5l-1.3,0.5l-1.3,0.5l-1.3,0.5l-1.3,0.5l-1.3,0.5l-1.3,0.5l-1.2,0.5l-1.2,0.5l-1.2,0.5l-1.2,0.4
	l-1.2,0.4l-1.1,0.4l-1,0.5l-1,0.4l-1,0.4l-0.9,0.3l-0.8,0.3l-0.8,0.2l-0.6-0.2l-0.8-0.7l-0.4-0.5l-0.7-0.2l-0.6,0.6l-0.9,0.7
	l-0.5,0.5l-0.6,0.5l-0.7,0.6l-0.7,0.6l-0.7,0.7l-0.8,0.7l-0.8,0.7l-0.8,0.7l-0.8,0.7l-0.8,0.7l-0.8,0.7l-0.8,0.7l-0.8,0.8
	l-0.8,0.8l-0.7,0.8l-0.7,0.8l-0.7,0.8l-0.6,0.9l-0.6,0.9l-0.6,0.9l-0.6,0.9l-0.5,1l-0.6,1l-0.6,1l-0.5,1l-0.5,1l-0.5,1l-0.5,1.1
	l-0.6,1l-0.6,1l-0.6,1l-0.7,1l-0.7,0.9l-0.8,0.9l-0.9,0.8l-0.9,0.8l-1,0.8l-1.1,0.7l-1.2,0.6l-1.3,0.5l-1.3,0.5l-1.2,0.5l-1.3,0.4
	l-1.3,0.4l-1.3,0.4l-1.3,0.4l-1.3,0.4l-1.3,0.4l-1.2,0.4l-1.2,0.5l-1.3,0.4l-1.2,0.5l-1.1,0.6l-1.1,0.7l-1,0.8l-1,0.9l-0.8,1
	l-0.8,1.1l-0.7,1.1l-0.6,1.2l-0.5,1.2l-0.5,1.2l-0.4,1.2l-0.4,1.2l-0.4,1.2v1l0.1,1l0.2,1l0.3,1l0.4,1l0.4,1l0.4,1l0.3,1l0.3,1.1
	l0.3,1.1l0.4,1.1l0.3,1.1l0.3,1.1l0.3,1.1l0.3,1.1l0.3,1.1l0.3,1.1l0.3,1.1l0.3,1.1l0.3,1.1l0.3,1.1l0.3,1.1l0.3,1.1l0.3,1.1
	l0.3,1.1l0.3,1.1l0.4,1.1l0.4,1.2l0.3,1.1l0.4,1.1l0.4,1.1l0.5,1.1l0.6,1.1l0.6,1.1l0.7,1l0.8,1l0.9,0.9l0.9,0.9l1,0.8l1.1,0.8
	l1.1,0.7l1.1,0.6l1.2,0.5l1.2,0.5l1.2,0.4l1.3,0.3l1.3,0.3l1.2,0.3l1.2,0.3l1.2,0.3l1.2,0.3l1.2,0.3l1.2,0.4l1.1,0.4l1.2,0.4
	l1.1,0.5l1,0.5l1,0.6l0.9,0.7l0.8,0.7l0.8,0.7l0.5,0.9l0.5,0.9l0.5,0.9l0.5,1l0.4,1l0.4,0.9l0.3,0.8l0.2,0.7l0.2,0.6l0.2,0.6
	l0.2,0.5l-0.1,0.5v0.6v0.5l-0.1,0.6l-0.1,0.7l-0.1,0.5l-0.2,0.6l-0.3,0.5l-0.2,0.6l-0.1,0.6l-0.2,0.6l-0.3,0.5l-0.4,0.6l-0.3,0.5
	l-0.4,0.5l-0.4,0.5l-0.3,0.5l-0.4,0.5l-0.4,0.4l-0.5,0.6l-0.4,0.4l-0.4,0.3l-0.5,0.4l-0.6,0.4l-0.5,0.2l-0.6,0.3l-0.6,0.3
	l-0.5,0.3l-0.5,0.3l-0.5,0.2l-0.6,0.2l-0.7,0.2l-0.7,0.2l-0.6,0.2l-0.6,0.2l-0.6,0.2l-0.6,0.2h-1l-0.7,0.2l-0.5,0.1l-0.6,0.2
	l-0.8,0.2l-0.8,0.1l-0.7,0.2l-0.5,0.2l-0.4,0.4v0.5v0.6l-0.2,0.6l-0.5,0.5l-0.8,0.3l-0.8,0.4l-0.8,0.7l-0.5,0.8l-0.1,0.5l-0.1,0.5
	v0.6v0.6v0.6l0.1,0.7l0.1,0.7l0.1,0.6l0.1,0.7l0.2,0.7l0.2,0.7l0.3,0.7l0.4,0.6l0.5,0.5l0.5,0.5l0.6,0.5l0.6,0.5l0.6,0.5l0.6,0.5
	l0.6,0.5l0.6,0.5l0.5,0.5l0.5,0.5l0.5,0.5l0.4,0.5l0.5,0.6l0.4,0.6l0.4,0.7l0.4,0.6l0.3,0.6l0.2,0.7v0.7v0.8v0.8v0.8l-0.1,0.8
	l-0.1,0.7l-0.2,0.8l-0.2,0.8l-0.4,0.7l-0.2,0.8l-0.1,0.8l-0.1,0.8v0.8v0.8l0.1,0.8l0.3,0.8l0.4,0.9l0.4,0.8l0.5,0.7l0.6,0.6
	l0.7,0.7l0.7,0.6l0.8,0.5l0.9,0.4l0.9,0.3l0.9,0.3l0.9,0.2l0.9,0.2l0.9,0.2l0.9,0.2l0.9,0.1l1,0.1h1l1,0.1l1,0.1l1,0.2l1,0.2
	l1,0.2l1,0.4l1,0.5l1,0.5l0.9,0.5l0.8,0.6l0.8,0.7l0.6,0.8l0.6,0.9l0.6,1l0.5,1l0.5,0.9l0.3,0.9l0.2,0.9v1l0.1,1l0.1,1l-0.1,1.1
	l-0.1,1l-0.2,1l-0.5,0.8l-0.8,0.7l-0.7,0.8l-0.7,0.9l-0.7,0.9l-0.8,0.8l-0.9,0.8l-1,0.8l-1.1,0.8l-1,0.8l-0.9,0.9l-0.9,0.9l-1,1
	l-1.2,1l-1.1,1.1l-1.2,1.2l-1.2,1l-1.2,1l-1.2,1l-1.2,0.8l-1.2,0.8l-1.3,0.7l-1.2,0.8l-1.3,0.7l-1.3,0.7l-1.3,0.6l-1.2,0.5
	l-1.2,0.5l-1.2,0.5l-1.3,0.6l-1.4,0.4l-1.4,0.4l-1.4,0.3l-1.4,0.3l-1.5,0.2l-1.5,0.1l-1.5,0.1l-1.5,0.2l-1.4,0.1l-1.5,0.1h-1.4
	l-1.4-0.1l-1.4-0.1l-1.4-0.1l-1.4-0.1h-1.4h-1.5l-1.5,0.1l-1.4,0.2l-1.4,0.2l-1.4,0.3l-1.2,0.3l-1.2,0.4l-0.6,1l-0.3,1.2l-0.4,1.2
	l-0.5,1.1l-0.4,1.2l-0.5,1.1l-0.5,1.1l-0.7,1.1l-0.8,1l-0.9,1l-1,0.9l-1.1,0.9l-1.2,0.8l-1.1,0.8l-1.1,0.8l-1.2,0.8l-1.1,0.8
	l-1,0.8l-1,0.8l-0.9,0.9l-0.9,0.7l-0.6,0.8l-0.5,0.7l-0.4,0.9l-0.3,1l-0.2,1l-0.1,0.8l-0.2,0.8l-0.2,0.8l-0.2,0.7l-0.2,0.6
	l-0.4,0.5l-0.5,0.6l-0.6,0.6l-0.6,0.6l-0.7,0.5l-0.6,0.5l-0.7,0.4l-0.7,0.5l-0.7,0.4l-0.7,0.5l-0.6,0.4l-0.7,0.5l-0.6,0.6
	l-0.5,0.6l-0.7,1.2l-0.2,0.6l-0.2,0.6l-0.1,0.6l-0.1,0.7l-0.1,0.7l0.2,0.6l0.3,0.5l0.5,0.3l0.9,0.3l0.6,0.1l0.6,0.1l0.6,0.1
	l0.6,0.1h0.7h0.7l0.7,0.2l0.7,0.3l0.6,0.4l0.5,0.4l0.5,0.5l0.6,0.5l0.5,0.5l0.5,0.5l0.5,0.5l0.5,0.6l0.2,0.6l0.2,0.5l0.1,0.5
	l0.1,0.7v0.6l-0.2,0.6l-0.5,0.3l-0.5,0.8l-0.3,0.4l-0.4,0.4l-0.5,0.3l-0.5,0.4l-0.4,0.3l-0.5,0.4l-0.4,0.3l-0.5,0.4l-0.9,0.3
	l-0.8,0.2l-0.8,0.2l-0.7,0.2l-0.7,0.1h-0.8l-0.9-0.3l-0.9-0.4l-0.9-0.4l-0.9-0.4l-0.9-0.4l-0.8-0.3l-0.8-0.3l-0.8-0.4l-0.8-0.3
	l-0.8-0.4l-1-0.4l-0.5-0.2l-0.5-0.2l-0.5-0.2l-0.6-0.2l-0.6-0.1l-0.6-0.1l-1.1-0.3l-0.6-0.2l-0.6-0.1l-0.6-0.1l-0.7-0.1h-0.7h-0.7
	h-0.7l-0.7,0.1l-0.7,0.1l-0.7,0.1l-0.7,0.2l-0.6,0.2l-0.6,0.3l-0.6,0.3l-0.6,0.3l-0.6,0.3l-0.6,0.3l-0.5,0.4l-0.5,0.4l-0.4,0.4
	l-0.4,0.3l-0.4,0.4l-0.3,0.4l-0.7,0.7l-0.6,0.5l-0.5,0.4l-0.5,0.3l-0.6,0.5l-0.7,0.1l-0.6-0.1l-0.5-0.3l-0.4-0.3l-0.4-0.9v-0.5
	v-0.5v-0.6l0.1-0.6l0.1-0.6l0.1-0.5l0.1-0.5l0.1-1v-0.6v-0.7v-0.7l-0.1-0.6v-0.5l-0.1-0.5l-0.1-0.5l-0.1-0.5l-0.1-0.5l-0.1-0.5
	l-0.1-0.5l-0.1-0.5l-0.1-0.5v-0.6v-0.6l-0.1-0.5l-0.1-0.6l-0.1-0.6l-0.1-0.6l-0.1-0.5l-0.1-0.5l-0.1-0.5l-0.2-0.5l-0.2-0.5
	l-0.1-0.5l-0.2-0.5l-0.2-0.5l-0.2-0.5l-0.2-0.5l-0.2-0.5l-0.2-0.5l-0.2-0.5l-0.2-0.5l-0.2-0.5l-0.2-0.5l-0.2-0.5l-0.2-0.5
	l-0.1-0.5l-0.1-0.5l-0.2-0.5l-0.3-0.7l-0.3-0.4l-0.5-0.3l-0.8-0.3l-0.9-0.1h-0.5l-0.7,0.1l-0.7,0.1l-0.7,0.1l-0.7,0.1h-0.8h-0.8
	h-0.8l-0.8-0.1l-0.8-0.3l-0.7-0.4l-0.7-0.4l-0.6-0.3l-0.6-0.3l-0.6-0.3l-0.7-0.2h-0.7l-0.8,0.1l-0.8,0.1l-0.8,0.2l-0.7,0.2
	l-0.5,0.4l-0.5,0.4l-0.4,0.3l-0.6,0.7l-0.4,0.5l-0.3,0.4l-0.3,0.4l-0.2,0.5l-0.1,0.6l-0.1,0.6l-0.1,0.5l-0.2,0.5l-0.2,0.5
	l-0.2,0.6l-0.2,0.6l-0.2,0.7l-0.2,0.5l-0.2,0.5l-0.2,0.6l-0.1,0.6l-0.1,1.3v0.6v0.6l0.2,1.8l0.1,0.5l0.1,0.6l0.1,0.6l0.2,0.6
	l0.1,0.5l0.1,0.5l0.1,0.5l0.1,0.5l0.2,0.7l0.2,0.6l0.6,0.2l-0.5-0.2l-0.3,0.5l-0.1,0.5l-0.2,0.5l-0.2,0.5l-0.2,0.5l-0.2,0.5
	l-0.4,0.8h-0.7h-0.7l-0.7-0.2l-0.6-0.2l-0.5-0.2l-0.8,0.1l-0.4,0.4h-0.7l-0.6,0.2l0.7,0.3l0.5,0.1l0.7,0.1l0.7,0.1l0.7,0.1
	l0.7,0.1l0.6,0.2l0.6,0.3l0.5,0.4l0.4,0.4l0.4,0.3l0.5,0.3l0.5,0.3l0.5,0.4l0.4,0.4l0.3,0.5l0.3,0.5l0.3,0.6l0.3,0.7l0.2,0.7
	l0.2,0.7l0.1,0.6l0.2,0.7l0.2,0.7l0.1,0.6l0.1,0.5l-0.1,0.5l-0.1,0.5l-0.3,0.6l-0.4,0.5l-0.4,0.5l-0.4,0.5l-0.6,0.7l-0.4,0.5
	l-0.3,0.5l-0.4,0.6l-0.4,0.6l-0.4,0.5l-0.5,0.5l-0.7,0.4l-0.8,0.5l-0.7,0.4l-0.7,0.3l-0.6,0.3l-0.6,0.4l-0.6,0.4l-0.6,0.4
	l-0.8,0.4l-0.6,0.3l-0.5,0.3l-0.5,0.3l-0.5,0.3l-0.5,0.4l-0.5,0.4l-0.4,0.3l-0.4,0.4l-0.4,0.5l-0.2,0.5l-0.1,0.5l-0.1,0.6
	l-0.2,0.6l-0.2,0.6v0.5l-0.1,0.5v0.6v0.5l0.1,0.6l0.1,0.6l0.2,0.6l0.2,0.6l0.3,0.5l0.4,0.5l0.5,0.5l0.6,0.5l0.8,0.5l0.5,0.2
	l0.5,0.3l0.9,0.5l0.5,0.3l0.5,0.2l0.6,0.2l1,0.5l0.5,0.2l1,0.4l0.5,0.3l0.5,0.2l0.8,0.6l0.4,0.3l0.4,0.4l0.4,0.4l0.3,0.4l0.6,0.8
	l0.4,0.8l0.4,0.9l0.4,0.9l0.2,0.8l0.2,0.8l0.1,0.6l0.1,0.6l-0.2,0.5l-0.3,0.5l-0.4,0.6l-0.4,0.6l-0.6,0.4l-0.6,0.3l-0.7,0.2
	l-0.6,0.2l-0.6,0.2l-0.8,0.3l-0.6,0.2l-0.6,0.1l-0.7,0.3l-0.7,0.3l-0.9,0.3l-1,0.4l-1,0.3l-0.5,0.2l-0.5,0.2l-0.6,0.2l-0.6,0.1
	l-0.6,0.1l-0.6,0.1l-0.6,0.1l-0.6,0.1l-0.6,0.1l-0.6,0.1l-0.6,0.1h-0.6h-0.6h-0.6h-0.6h-0.7h-0.7h-0.7l-0.7-0.1l-0.7-0.1l-0.6-0.1
	h-0.6h-0.6l-0.7-0.1l-0.7-0.1l-0.7-0.1l-0.7-0.1l-0.7-0.1l-0.7-0.1l-0.6-0.1l-0.6-0.2l-0.6-0.2l-0.5-0.2l-0.5-0.2l-0.6-0.2
	l-0.6-0.2l-0.5-0.2l-0.6-0.2l-1-0.3l-1-0.2l-0.6-0.1l-0.5-0.1l-0.6-0.1l-1.1-0.2l-0.5-0.1l-1-0.1h-1l-1,0.1l-1,0.1l-1,0.1l-1,0.1
	l-1.1,0.1h-0.5h-0.6h-1.1l-1-0.1l-1-0.4l-0.9-0.4l-0.8-0.4l-0.8-0.3l-0.6-0.3l-0.6-0.3l-0.5-0.2l-0.7-0.1h-0.6h-0.8h-0.6h-0.6
	h-0.6h-0.8h-0.8l-0.7,0.1l-0.5,0.2l-0.5,0.4l-0.3,0.6l-0.1,0.5l-0.1,0.6l-0.1,0.6l-0.1,0.6l-0.1,0.6v0.5v0.6l-0.1,0.8v0.5v0.5
	l-0.1,0.5l-0.1,0.5v0.5l-0.1,0.5v0.5v0.5v0.5l-0.1,1v0.5v0.5v0.5v0.5l0.1,0.9l0.1,0.9v0.5v0.5l0.1,0.5l0.1,0.5l0.1,0.5l0.1,0.5
	l0.1,0.5l0.1,0.5l0.1,0.5l0.1,0.5l0.1,0.5l0.1,0.5l0.2,0.9l0.2,0.9l0.4,0.8l0.6,0.7l0.5,0.7l0.7,0.6l0.7,0.6l0.7,0.5l0.7,0.4
	l0.6,0.3l0.6,0.3l0.5,0.2l0.6,0.3l0.6,0.3l0.4,0.4l0.5,0.3l0.7,0.3l0.6,0.2l0.7,0.3l0.7,0.5l0.6,0.6l0.5,0.6l0.4,0.6l0.4,0.7
	l0.4,0.7l0.5,0.7l0.4,0.7l0.5,0.8l0.3,0.5l0.3,0.5l0.3,0.5l0.3,0.5l0.3,0.4l0.3,0.4l0.5,0.8l0.5,0.7l0.4,0.7l0.4,0.7l0.4,0.6
	l0.5,0.5l0.6,0.4l0.7,0.4l0.6,0.4l0.6,0.4l0.6,0.4l0.5,0.4l0.5,0.4l0.5,0.3l0.5,0.4l0.5,0.4l0.5,0.4l0.4,0.5l0.3,0.6l0.3,0.6
	l0.2,0.6l0.1,0.7v0.6v0.6v0.5l-0.1,0.6l-0.1,0.6v0.7v0.9v1v0.5l0.1,0.5l0.1,0.6l0.1,0.5l0.1,0.5l0.2,0.5l0.2,0.5l0.2,0.5l0.2,0.5
	l0.2,0.5l0.3,0.8l0.2,0.6l0.2,0.5l0.5,1l0.2,0.5l0.2,0.6l0.2,0.5l0.2,0.5l0.2,0.6l0.1,0.5l0.1,0.6l0.1,0.6l0.1,0.7v0.6l-0.2,0.5
	l-0.3,0.6l-0.3,0.6l-0.2,0.5l-0.2,0.6v0.6l0.2,0.5l0.2,0.5l0.3,0.5l0.4,0.6l0.3,0.5l0.3,0.6l0.3,0.7l0.3,0.7l0.3,0.8l0.1,0.5
	l0.1,0.5l0.1,0.5l0.1,0.5l0.1,0.5v0.5v0.6v0.5v0.6l-0.1,0.6l-0.1,0.6l-0.1,0.6l-0.1,0.6l-0.1,0.5l-0.2,0.6l-0.2,0.6l-0.2,0.6
	l-0.2,0.6l-0.2,0.6l-0.2,0.6l-0.2,0.6l-0.2,0.6l-0.3,0.6l-0.3,0.6l-0.3,0.5l-0.3,0.5l-0.3,0.5l-0.2,0.5l-0.3,0.5l-0.3,0.4
	l-0.5,0.7l-0.6,0.7l-0.6,0.6l-0.5,0.6l-0.4,0.6l-0.5,0.6l-0.5,0.6l-0.4,0.6l-0.4,0.6l-0.3,0.5l-0.3,0.6l-0.3,0.7l-0.3,0.7
	l-0.3,0.7l-0.3,0.6l-0.3,0.6l-0.3,0.6l-0.3,0.5l-0.3,0.5l-0.5,0.6l-0.3,0.4l-0.3,0.4l-0.4,0.5l-0.4,0.4l-0.4,0.6l-0.3,0.5
	l-0.5,0.6l-0.5,0.6l-0.3,0.4l-0.3,0.4l-0.3,0.4l-0.4,0.4l-0.7,0.7l-0.4,0.3l-0.4,0.3l-0.7,0.6l-0.7,0.6l-0.4,0.3l-0.5,0.4
	l-0.5,0.4l-0.5,0.5l-0.5,0.5l-0.6,0.5l-0.6,0.5l-0.6,0.5l-0.6,0.5l-0.5,0.5l-0.6,0.5l-0.6,0.5l-0.6,0.5l-0.6,0.5l-0.6,0.5
	l-0.6,0.5l-0.6,0.5l-0.6,0.4l-0.6,0.4l-0.6,0.4l-0.6,0.5l-0.6,0.5l-0.6,0.5l-0.5,0.4l-0.5,0.4l-0.5,0.5l-0.5,0.4l-0.5,0.5
	l-0.5,0.4l-0.4,0.3l-0.5,0.4l-0.5,0.4l-0.5,0.4l-0.4,0.4l-0.4,0.3l-0.4,0.4l-0.4,0.3l-0.4,0.4l-0.4,0.4l-0.4,0.4l-0.6,0.8
	l-0.6,0.8l-0.5,0.7l-0.4,0.7l-0.3,0.7l-0.3,0.6l-0.2,0.6l-0.1,0.5l-0.1,0.6l-0.1,0.6l-0.1,0.5l-0.1,0.7l-0.1,0.7l0.1,0.5l-0.1,0.7
	v0.5v0.5l0.2,0.7l0.3,0.5l0.2,0.5l0.1,0.5l0.1,0.5v0.6l-0.1,0.6v0.5v0.5l0.1,0.6l0.1,0.7l0.1,0.8l0.1,0.9l0.1,0.5l0.1,0.5l0.1,0.5
	l0.1,0.6l0.1,0.5l0.1,0.5v0.6l-0.1,0.6l-0.1,0.5v0.5v0.5v0.5v0.5v0.5v0.5v0.5v0.6v0.5v0.6l0.1,0.6l0.1,0.6l0.1,0.6l0.1,0.6
	l0.1,0.6l0.1,0.6l0.1,0.6l0.1,0.6l0.2,0.6l0.2,0.6l0.1,0.5l0.1,0.5l0.1,0.5l0.1,0.5l0.1,0.5l0.1,0.9l0.1,0.8l0.2,0.8l0.2,0.6
	l0.2,0.6l0.1,0.6l0.2,0.5l0.2,0.5l0.2,0.5l0.1,0.7l0.1,0.6l0.1,0.7l0.2,0.9l0.1,0.7l0.1,0.6l0.1,0.6l0.1,0.8l0.1,0.7l0.2,0.7
	l0.1,0.8v0.8l-0.1,0.7l-0.2,0.6l-0.2,0.6l-0.1,0.5l-0.2,0.6l-0.1,0.5v0.7l0.1,0.7l0.1,0.6l0.1,0.6l0.1,0.6l0.1,0.6l0.2,0.6
	l0.3,0.7l0.4,0.5l0.4,0.5l0.4,0.5l0.5,0.6l0.3,0.4l0.3,0.4l0.4,0.5l0.5,0.6l0.4,0.5l0.3,0.5l0.3,0.4l0.2,0.6l0.2,0.7l0.2,0.7
	l0.1,0.7l-0.1,0.8l-0.1,0.8l-0.2,0.7l-0.2,0.7l-0.3,0.8l-0.3,0.6l-0.4,0.6l-0.5,0.5l-0.6,0.5l-0.7,0.4l-0.8,0.4l-0.8,0.4l-0.8,0.5
	l-0.5,0.3l-0.9,0.5l-0.5,0.3l-0.9,0.5l-0.5,0.3l-0.9,0.5l-0.9,0.5l-0.7,0.3l-0.8,0.3l-0.7,0.5l-0.7,0.3l-0.7,0.3l-0.8,0.3
	l-0.5,0.3l-0.7,0.4l-0.5,0.1h-0.8l-0.7-0.2l-0.6-0.4l-0.6-0.4l-0.6-0.4l-0.4-0.4l-0.6-0.5l-0.5-0.3l-0.5-0.4l-0.8-0.6h-0.7
	l0.3,0.6l0.3,0.5l-0.5,0.4l-0.8,0.2l-0.4-0.4l-0.5-0.6l-0.5-0.2l-0.7-0.3l-0.4-0.4l-0.5,0.2l-0.5,0.4l-0.3,0.4l0.5,0.5l0.6,0.2
	l-0.5,0.5l-0.2,0.6l0.6,0.4l0.5,0.2l0.7,0.2h0.6l0.4-0.5l-1.1-0.3l0.2-0.1l-0.2,0.5l0.1,0.2"/>
<circle class="st1s" cx="0" cy="0" r="15">

	<animateMotion  accumulate="none" additive="replace" calcMode="paced" dur="8s" fill="freeze" repeatCount="indefinite" restart="always">
	<mpath  xlink:href="#theMotionPaths"></mpath>
</animateMotion>
</circle>
</svg>
